<svg version="1.1" viewBox="0.0 0.0 960.0 720.0" fill="none" stroke="none" stroke-linecap="square" stroke-miterlimit="10" xmlns:xlink="http://www.w3.org/1999/xlink" xmlns="http://www.w3.org/2000/svg"><clipPath id="p.0"><path d="m0 0l960.0 0l0 720.0l-960.0 0l0 -720.0z" clip-rule="nonzero"/></clipPath><g clip-path="url(#p.0)"><path fill="#000000" fill-opacity="0.0" d="m0 0l960.0 0l0 720.0l-960.0 0z" fill-rule="evenodd"/><path fill="#000000" fill-opacity="0.0" d="m60.35958 279.19684l919.4016 0l0 140.59845l-919.4016 0z" fill-rule="evenodd"/><path fill="#29a645" d="m75.062706 384.19684l0 -72.09375l15.5 0l0 56.5l56.499992 0l0 15.59375l-71.99999 0zm77.993675 0l0 -57.203125q0 -4.09375 2.0 -7.4375q2.0 -3.359375 5.390625 -5.359375q3.40625 -2.0 7.40625 -2.0l42.3125 0q4.09375 0 7.4375 2.0q3.359375 2.0 5.40625 5.359375q2.046875 3.34375 2.046875 7.4375l0 57.203125l-15.703125 0l0 -23.203125l-40.796875 0l0 23.203125l-15.5 0l0 0zm15.5 -38.796875l40.796875 0l0 -17.609375q0 0 0 0q0 0 0 0l-40.796875 0q0 0 0 0q0 0 0 0l0 17.609375l0 0zm67.89679 38.796875l0 -72.0l16.0 0l40.312515 48.0l0 -48.0l15.6875 0l0 72.0l-16.0 0l-40.500015 -48.203125l0 48.203125l-15.5 0zm98.012436 0q-4.109375 0 -7.46875 -2.0q-3.34375 -2.0 -5.34375 -5.34375q-2.0 -3.359375 -2.0 -7.453125l0 -42.40625q0 -4.09375 2.0 -7.4375q2.0 -3.359375 5.34375 -5.359375q3.359375 -2.0 7.46875 -2.0l57.0 0l0 15.59375l-53.0 0q-1.609375 0 -2.46875 0.8125q-0.84375 0.796875 -0.84375 2.5l0 34.1875q0 1.609375 0.84375 2.46875q0.859375 0.84375 2.46875 0.84375l53.0 0l0 15.59375l-57.0 0zm67.590546 0l0 -72.0l66.5 0l0 15.59375l-50.796875 0l0 12.609375l40.90625 0l0 15.59375l-40.90625 0l0 12.609375l50.796875 0l0 15.59375l-66.5 0zm76.70932 0l0 -72.0l54.390594 0q4.0 0 7.34375 2.0q3.359375 2.0 5.40625 5.359375q2.046875 3.34375 2.046875 7.4375l0 13.5q0 1.296875 -0.15625 2.453125q-0.140625 1.15625 -0.53125 2.15625q1.5 1.890625 2.5 4.390625q1.0 2.5 1.0 5.0l0 14.90625q0 4.0 -2.0625 7.40625q-2.046875 3.390625 -5.40625 5.390625q-3.34375 2.0 -7.4375 2.0l-57.09372 0l0 0zm15.5 -15.59375l40.796844 0q0 0 0 0q0 0 0 0l0 -13.203125q0 0 0 0q0 0 0 0l-40.796844 0q0 0 0 0q0 0 0 0l0 13.203125q0 0 0 0q0 0 0 0zm0 -28.8125l37.99997 0q0 0 0 0q0 0 0 0l0 -12.0q0 0 0 0q0 0 0 0l-37.99997 0q0 0 0 0q0 0 0 0l0 12.0q0 0 0 0q0 0 0 0zm81.996796 44.40625q-4.0 0 -7.40625 -2.0q-3.390625 -2.0 -5.390625 -5.390625q-2.0 -3.40625 -2.0 -7.40625l0 -42.40625q0 -4.09375 2.0 -7.4375q2.0 -3.359375 5.390625 -5.359375q3.40625 -2.0 7.40625 -2.0l42.390625 0q4.0 0 7.34375 2.0q3.359375 2.0 5.40625 5.359375q2.0625 3.34375 2.0625 7.4375l0 42.40625q0 4.0 -2.0625 7.40625q-2.046875 3.390625 -5.40625 5.390625q-3.34375 2.0 -7.34375 2.0l-42.390625 0zm0.703125 -15.59375l40.796875 0q0 0 0 0q0 0 0 0l0 -40.8125q0 0 0 0q0 0 0 0l-40.796875 0q0 0 0 0q0 0 0 0l0 40.8125q0 0 0 0q0 0 0 0zm92.0968 15.59375l0 0l0 -56.40625l-28.203125 0l0 -15.59375l72.0 0l0 15.59375l-28.203125 0l0 56.40625l-15.59375 0zm48.790527 0l0 -72.0l15.3125 0l0 72.0l-15.3125 0zm38.712463 0q-4.109375 0 -7.46875 -2.0q-3.34375 -2.0 -5.34375 -5.34375q-2.0 -3.359375 -2.0 -7.453125l0 -42.40625q0 -4.09375 2.0 -7.4375q2.0 -3.359375 5.34375 -5.359375q3.359375 -2.0 7.46875 -2.0l57.0 0l0 15.59375l-53.0 0q-1.609375 0 -2.46875 0.8125q-0.84375 0.796875 -0.84375 2.5l0 34.1875q0 1.609375 0.84375 2.46875q0.859375 0.84375 2.46875 0.84375l53.0 0l0 15.59375l-57.0 0zm81.996765 0q-4.0 0 -7.40625 -2.0q-3.390625 -2.0 -5.390625 -5.390625q-2.0 -3.40625 -2.0 -7.40625l0 -6.703125l15.5 0l0 5.90625q0 0 0 0q0 0 0 0l40.796875 0q0 0 0 0q0 0 0 0l0 -12.609375q0 0 0 0q0 0 0 0l-41.5 0q-4.0 0 -7.40625 -2.0q-3.390625 -2.0 -5.390625 -5.34375q-2.0 -3.359375 -2.0 -7.453125l0 -14.203125q0 -4.09375 2.0 -7.4375q2.0 -3.359375 5.390625 -5.359375q3.40625 -2.0 7.40625 -2.0l42.390625 0q4.0 0 7.34375 2.0q3.359375 2.0 5.40625 5.359375q2.0625 3.34375 2.0625 7.4375l0 6.703125l-15.703125 0l0 -5.90625q0 0 0 0q0 0 0 0l-40.796875 0q0 0 0 0q0 0 0 0l0 12.609375q0 0 0 0q0 0 0 0l41.6875 0q4.0 0 7.34375 2.0q3.359375 2.0 5.40625 5.359375q2.0625 3.34375 2.0625 7.4375l0 14.203125q0 4.0 -2.0625 7.40625q-2.046875 3.390625 -5.40625 5.390625q-3.34375 2.0 -7.34375 2.0l-42.390625 0z" fill-rule="nonzero"/></g></svg>